# xmcd
#
# Track frame offsets:
#	150
#	21340
#	43304
#	53883
#	69696
#	79391
#
# Disc length: 1259 seconds
#
# Revision: 1
# Processed by: cddbd v1.4PL0 Copyright (c) Steve Scherf et al.
# Submitted via: audiograbber 1.82.02
#
DISCID=5504e906
DTITLE=Various  - The Blues a Vanguard Tradition
DYEAR=2003
DGENRE=Blues
TTITLE0=Buddy Guy - Hold That Plane 
TTITLE1=Big Mama Thornton - Lost City 
TTITLE2=The Jimmy Cotton Blues Quartet - Cotton Crop Blues 
TTITLE3=Otis Spann - Sometimes I Wonder 
TTITLE4=Mississippi John Hurt - Keep On Knocking 
TTITLE5=Skip James - Hard Time Killing Floor Blues
EXTD=A 2 dollar sampler...
EXTT0=
EXTT1=
EXTT2=
EXTT3=
EXTT4=
EXTT5=
PLAYORDER=
